# xmcd
#
# Track frame offsets:
# 150
# 16065
# 44156
# 57841
# 77885
# 102341
# 122280
# 140635
# 165850
# 184041
# 219514
# 243416
# 261379
#
# Disc length: 3857 seconds
#
# Revision: 0
# Processed by: cddbd v1.4PL0 Copyright (c) Steve Scherf et al.
# Submitted via: Axialis_AX_CDPlayer 2.6
#
DISCID=af0f0f0d
DTITLE=Jackie Greene - Positively 12th and K: A Bob Dylan Tribute
DYEAR=1900
DGENRE=
TTITLE0=Subterranean Homesick Blues
TTITLE1=Isis
TTITLE2=Tonight I'll Be Staying Here With You
TTITLE3=Highway 61 Revisited
TTITLE4=It's All Over Now Baby Blue
TTITLE5=Can You Please Crawl Out Your Window
TTITLE6=Don't Think Twice, It's All Right
TTITLE7=Not Dark Yet
TTITLE8=Everything Is Broken
TTITLE9=Lonesome Day Blues
TTITLE10=Most Of The Time
TTITLE11=All Along The Watchtower
TTITLE12=I Shall Be Released
EXTD=
EXTT0=
EXTT1=
EXTT2=
EXTT3=
EXTT4=
EXTT5=
EXTT6=
EXTT7=
EXTT8=
EXTT9=
EXTT10=
EXTT11=
EXTT12=
PLAYORDER=
